# This file uses centimeters as units for non-parametric coordinates.
# UVs by headus UVLayout v2.08.00 2012/05/02 06:40:44

g default
v -3.573373 -0.274895 4.144470
v 3.814467 0.151976 3.661806
v -4.421024 8.324360 4.436378
v 4.142107 7.433210 3.462479
v -3.864220 7.692980 -4.009166
v 4.081941 7.617340 -3.790838
v -3.888351 0.034100 -3.932343
v 3.352647 0.613796 -3.352647
v 0.441476 -1.013272 4.464193
v 0.042572 8.549206 4.578777
v 0.000000 8.401938 -4.435495
v -0.000000 0.033070 -3.933374
v -4.532443 4.000322 4.752181
v 3.978822 3.951438 3.829986
v -5.517095 9.446770 -0.146633
v 3.691674 7.640719 -0.002386
v -3.642662 3.966443 -3.642662
v 3.764478 3.966443 -3.764478
v -3.642475 0.324492 0.000757
v 3.642662 0.323781 0.000000
v 0.281383 3.840249 6.590568
v 0.338569 10.874373 0.255906
v 0.000000 3.966443 -4.974864
v 0.000000 -1.008421 0.000000
v 6.629435 3.966443 0.000000
v -6.026025 4.012326 -0.233813
v -1.891467 -0.653413 4.651196
v 2.156190 -0.247701 3.971097
v -2.136169 8.663168 4.725497
v 2.282897 8.064671 4.060413
v -2.393098 8.654320 -4.694468
v 1.947214 7.786842 -3.825183
v -2.356938 -0.632502 -4.598945
v 1.733655 0.541902 -3.427019
v -5.014779 0.810329 5.728586
v -4.562871 6.302120 4.508005
v 3.391953 2.255719 3.391953
v 4.341589 6.021382 3.874618
v -5.396969 9.505107 2.896728
v -5.308472 9.231010 -3.041731
v 4.776646 8.118439 2.183491
v 3.672058 7.555210 -1.837685
v -3.547818 5.758214 -3.558592
v -3.434064 2.232600 -3.436149
v 3.609315 5.772168 -3.595240
v 4.191478 1.827659 -4.191478
v -4.319902 -0.573200 -2.380105
v -3.988550 -0.045639 2.033682
v 4.116175 -0.149731 -2.098467
v 4.392470 -0.426027 2.246393
v 0.115472 1.353133 6.118495
v 3.099741 3.806281 6.711067
v 0.182399 6.298215 6.087238
v -2.410595 3.881347 7.280013
v 0.278619 10.322990 2.414640
v 3.108030 10.173941 0.035194
v 0.289959 11.126082 -2.742088
v -2.711638 11.374701 0.104370
v 0.000000 6.069516 -4.950025
v 2.237011 3.952736 -5.267772
v 0.000000 1.980430 -4.640585
v -1.986013 3.966443 -4.640585
v 0.011068 -1.196675 -2.173594
v 2.292194 -1.420101 0.023916
v 0.194999 -2.115378 2.368135
v -1.986013 -0.674141 0.000000
v 5.408097 1.690083 0.000000
v 5.553046 3.966443 -2.331194
v 5.382100 6.232572 -0.000385
v 4.678670 3.966443 2.000421
v -6.635736 1.036657 -0.343893
v -6.330127 3.813749 2.659838
v -6.227854 6.542685 0.001501
v -5.696637 4.009483 -2.534032
v 2.315034 1.629147 5.188593
v 2.337756 6.151993 5.367887
v -2.337705 6.504237 5.967641
v -1.966845 1.059642 6.746471
v 2.536328 9.368991 2.191654
v 2.305493 8.936965 -2.159737
v -2.849801 11.270500 -3.012286
v -2.495831 10.311183 2.600015
v 1.848369 5.814812 -4.325969
v 1.851720 2.115168 -4.333697
v -1.878185 2.088258 -4.399095
v -1.956749 5.923413 -4.593154
v 2.419493 -1.462890 -2.266884
v 2.348813 -1.586876 2.348813
v -1.929295 -0.559295 1.929483
v -2.039149 -0.827338 -2.039089
v 4.765964 1.938669 -2.027774
v 4.325969 5.814812 -1.848369
v 5.683975 6.358013 2.393067
v 5.037058 1.828132 2.138311
v -5.408054 1.497769 2.292932
v -6.374559 6.813449 2.793504
v -6.621509 6.596820 -3.011405
v -4.436000 2.070552 -1.895578
# 123 texture coords
vt 0.071122 0.523849
vt 0.192370 0.691231
vt 0.729536 0.426872
vt 0.476393 0.440637
vt 0.099007 0.163286
vt 0.285160 0.050708
vt 0.228060 0.344100
vt 0.386380 0.216820
vt 0.130176 0.617248
vt 0.599574 0.429841
vt 0.182183 0.086004
vt 0.313886 0.286578
vt 0.772948 0.525949
vt 0.457027 0.538628
vt 0.769882 0.304454
vt 0.437856 0.337722
vt 0.157077 0.255870
vt 0.343414 0.126474
vt 0.159150 0.434969
vt 0.289942 0.652729
vt 0.604873 0.576524
vt 0.586131 0.291503
vt 0.247971 0.191040
vt 0.227706 0.533507
vt 0.334781 0.451555
vt 0.911624 0.418478
vt 0.089166 0.569344
vt 0.159339 0.661955
vt 0.660310 0.433961
vt 0.533430 0.428391
vt 0.124696 0.118679
vt 0.237117 0.064260
vt 0.264200 0.325956
vt 0.351987 0.249617
vt 0.762413 0.470406
vt 0.469390 0.483935
vt 0.734993 0.376590
vt 0.456708 0.401075
vt 0.130760 0.210595
vt 0.187682 0.296290
vt 0.312458 0.085462
vt 0.372676 0.175377
vt 0.109742 0.474024
vt 0.231009 0.678230
vt 0.532594 0.565791
vt 0.605843 0.503015
vt 0.682556 0.570140
vt 0.584844 0.354255
vt 0.506759 0.307846
vt 0.677075 0.281398
vt 0.217086 0.142126
vt 0.297576 0.159036
vt 0.279331 0.237862
vt 0.201442 0.222820
vt 0.261515 0.594349
vt 0.177302 0.579176
vt 0.192854 0.483604
vt 0.384623 0.389567
vt 0.399730 0.509469
vt 0.851949 0.488773
vt 0.849608 0.363307
vt 0.541987 0.495625
vt 0.678127 0.494999
vt 0.520074 0.366045
vt 0.658927 0.359140
vt 0.265148 0.115460
vt 0.321563 0.207394
vt 0.232077 0.264195
vt 0.172627 0.176751
vt 0.205824 0.625054
vt 0.147956 0.517056
vt 0.421980 0.444561
vt 0.813808 0.420830
vt 0.370523 0.554499
vt 0.306349 0.507884
vt 0.259434 0.460367
vt 0.298092 0.403260
vt 0.435646 0.585290
vt 0.357281 0.344277
vt 0.511500 0.628315
vt 0.412031 0.301058
vt 0.604484 0.647847
vt 0.476331 0.252577
vt 0.691557 0.643662
vt 0.577076 0.211942
vt 0.796688 0.613327
vt 0.688595 0.202830
vt 0.882873 0.539218
vt 0.801278 0.237951
vt 0.954591 0.485673
vt 0.882197 0.296831
vt 0.946411 0.366285
vt 0.991441 0.408145
vt 0.157627 0.340706
vt 0.102389 0.291506
vt 0.044152 0.233879
vt 0.036508 0.148078
vt 0.298085 0.379379
vt 0.214463 0.388686
vt 0.107226 0.373330
vt 0.064368 0.057313
vt 0.352649 0.333111
vt 0.240816 0.451935
vt 0.066432 0.437725
vt 0.143293 0.004717
vt 0.408459 0.285903
vt 0.279693 0.503144
vt 0.004717 0.516372
vt 0.233764 0.006383
vt 0.397872 0.093730
vt 0.425014 0.155758
vt 0.431036 0.224589
vt 0.318750 0.566210
vt 0.023523 0.607909
vt 0.348743 0.045995
vt 0.298196 0.009601
vt 0.343231 0.626061
vt 0.064119 0.661111
vt 0.362767 0.683399
vt 0.310624 0.710684
vt 0.121716 0.710814
vt 0.249424 0.735341
vt 0.180701 0.745611
vn 0.442250 -0.578870 0.685072
vn 0.639173 -0.322405 0.698221
vn 0.814211 -0.228503 0.533711
vn 0.527494 -0.438052 0.727915
vn 0.862858 -0.151337 0.482259
vn 0.551863 -0.071293 0.830882
vn 0.179256 0.038160 0.983062
vn 0.238412 -0.437924 0.866823
vn 0.100452 -0.795222 0.597939
vn 0.769744 0.145934 0.621448
vn 0.527891 0.530821 0.662993
vn 0.373147 0.624213 0.686382
vn 0.433691 0.413890 0.800379
vn 0.172752 0.666324 0.725375
vn 0.143847 0.438477 0.887156
vn -0.089512 0.637312 0.765389
vn -0.438264 0.456279 0.774425
vn -0.646136 0.162724 0.745674
vn -0.255974 0.367493 0.894106
vn -0.743144 0.069991 0.665461
vn -0.274921 0.128316 0.952866
vn -0.720052 -0.333944 0.608281
vn -0.409446 -0.892349 0.189912
vn -0.166431 -0.876921 0.450900
vn -0.161680 -0.360563 0.918615
vn 0.743392 0.654938 0.135736
vn 0.477227 0.791032 0.382782
vn 0.804998 0.543450 -0.237994
vn 0.630626 0.773090 -0.068136
vn 0.253864 0.961970 0.100833
vn 0.191932 0.862217 0.468768
vn 0.817186 0.511200 -0.266236
vn 0.674329 0.424468 -0.604241
vn 0.440448 0.432457 -0.786757
vn 0.612599 0.675308 -0.410709
vn 0.243601 0.388044 -0.888865
vn 0.298805 0.848442 -0.436877
vn -0.138413 0.325833 -0.935240
vn -0.393556 0.070785 -0.916571
vn -0.743737 0.525838 -0.412734
vn -0.239865 0.874312 -0.421953
vn -0.776885 0.628879 0.030986
vn -0.235572 0.965996 0.106569
vn -0.676402 0.650024 0.346338
vn -0.146020 0.891639 0.428554
vn 0.663089 0.229233 -0.712576
vn 0.293134 0.213466 -0.931936
vn 0.657194 0.129656 -0.742486
vn 0.271883 0.030833 -0.961836
vn -0.052152 -0.049225 -0.997425
vn 0.067085 0.137860 -0.988177
vn 0.600312 -0.280172 -0.749085
vn 0.394918 -0.551333 -0.734896
vn 0.169649 -0.548124 -0.819011
vn 0.175296 -0.337426 -0.924887
vn 0.152662 -0.589027 -0.793562
vn 0.065126 -0.243103 -0.967812
vn -0.147849 -0.596140 -0.789150
vn -0.692868 -0.282559 -0.663396
vn -0.656276 -0.050064 -0.752858
vn -0.218132 -0.051098 -0.974581
vn -0.484449 -0.173049 -0.857533
vn -0.342461 -0.057076 -0.937797
vn -0.394071 -0.085156 -0.915126
vn -0.261334 -0.001919 -0.965247
vn 0.729898 -0.650667 -0.209480
vn 0.284853 -0.912072 -0.294930
vn 0.750157 -0.658173 -0.063814
vn 0.315006 -0.944525 -0.092974
vn -0.178523 -0.980199 -0.085670
vn -0.025785 -0.967560 -0.251322
vn 0.767933 -0.620950 0.157161
vn 0.372175 -0.923631 0.091606
vn -0.131667 -0.988497 0.074419
vn -0.475871 -0.879515 0.000733
vn -0.357099 -0.933778 -0.023217
vn -0.470389 -0.882186 0.021959
vn -0.320460 -0.946992 0.022614
vn -0.664761 -0.723439 -0.186355
vn -0.153377 -0.987655 -0.031833
vn 0.859054 -0.385027 -0.337314
vn 0.861638 0.090947 -0.499309
vn 0.999750 -0.007028 -0.021200
vn 0.899777 -0.436335 -0.003701
vn 0.822173 0.418156 -0.386236
vn 0.879475 0.441696 -0.177280
vn 0.939553 0.200375 0.277651
vn 0.867580 -0.133064 0.479166
vn 0.888477 -0.238932 0.391817
vn -0.890613 -0.409567 0.197645
vn -0.957701 -0.037691 0.285287
vn -0.987416 -0.125444 -0.096296
vn -0.889782 -0.442836 -0.110384
vn -0.951616 0.127833 0.279439
vn -0.993398 0.112958 -0.020025
vn -0.895007 0.051681 -0.443048
vn -0.784667 -0.238191 -0.572331
vn -0.804937 -0.270865 -0.527928
s 1
g pCube9
f 28/28/1 2/2/2 37/123/3 75/121/4
f 37/78/3 14/14/5 52/45/6 75/80/4
f 52/45/6 21/21/7 51/82/8 75/80/4
f 51/118/8 9/9/9 28/28/1 75/121/4
f 38/36/10 4/4/11 30/30/12 76/62/13
f 30/30/12 10/10/14 53/46/15 76/62/13
f 53/46/15 21/21/7 52/45/6 76/62/13
f 52/45/6 14/14/5 38/36/10 76/62/13
f 29/29/16 3/3/17 36/35/18 77/63/19
f 36/35/18 13/13/20 54/47/21 77/63/19
f 54/47/21 21/21/7 53/46/15 77/63/19
f 53/46/15 10/10/14 29/29/16 77/63/19
f 35/108/22 1/1/23 27/27/24 78/114/25
f 27/27/24 9/9/9 51/118/8 78/114/25
f 51/82/8 21/21/7 54/47/21 78/84/25
f 54/47/21 13/13/20 35/86/22 78/84/25
f 30/30/12 4/4/11 41/38/26 79/64/27
f 41/38/26 16/16/28 56/49/29 79/64/27
f 56/49/29 22/22/30 55/48/31 79/64/27
f 55/48/31 10/10/14 30/30/12 79/64/27
f 42/116/32 6/6/33 32/32/34 80/109/35
f 32/32/34 11/11/36 57/105/37 80/109/35
f 57/85/37 22/22/30 56/49/29 80/83/35
f 56/49/29 16/16/28 42/81/32 80/83/35
f 31/31/38 5/5/39 40/97/40 81/101/41
f 40/89/40 15/15/42 58/50/43 81/87/41
f 58/50/43 22/22/30 57/85/37 81/87/41
f 57/105/37 11/11/36 31/31/38 81/101/41
f 39/37/44 3/3/17 29/29/16 82/65/45
f 29/29/16 10/10/14 55/48/31 82/65/45
f 55/48/31 22/22/30 58/50/43 82/65/45
f 58/50/43 15/15/42 39/37/44 82/65/45
f 32/32/34 6/6/33 45/41/46 83/66/47
f 45/41/46 18/18/48 60/52/49 83/66/47
f 60/52/49 23/23/50 59/51/51 83/66/47
f 59/51/51 11/11/36 32/32/34 83/66/47
f 46/42/52 8/8/53 34/34/54 84/67/55
f 34/34/54 12/12/56 61/53/57 84/67/55
f 61/53/57 23/23/50 60/52/49 84/67/55
f 60/52/49 18/18/48 46/42/52 84/67/55
f 33/33/58 7/7/59 44/40/60 85/68/61
f 44/40/60 17/17/62 62/54/63 85/68/61
f 62/54/63 23/23/50 61/53/57 85/68/61
f 61/53/57 12/12/56 33/33/58 85/68/61
f 43/39/64 5/5/39 31/31/38 86/69/65
f 31/31/38 11/11/36 59/51/51 86/69/65
f 59/51/51 23/23/50 62/54/63 86/69/65
f 62/54/63 17/17/62 43/39/64 86/69/65
f 34/34/54 8/8/53 49/112/66 87/106/67
f 49/117/66 20/20/68 64/55/69 87/113/67
f 64/55/69 24/24/70 63/107/71 87/113/67
f 63/102/71 12/12/56 34/34/54 87/106/67
f 50/44/72 2/2/2 28/28/1 88/70/73
f 28/28/1 9/9/9 65/56/74 88/70/73
f 65/56/74 24/24/70 64/55/69 88/70/73
f 64/55/69 20/20/68 50/44/72 88/70/73
f 27/27/24 1/1/23 48/43/75 89/71/76
f 48/43/75 19/19/77 66/57/78 89/71/76
f 66/57/78 24/24/70 65/56/74 89/71/76
f 65/56/74 9/9/9 27/27/24 89/71/76
f 47/99/79 7/7/59 33/33/58 90/98/80
f 33/33/58 12/12/56 63/102/71 90/98/80
f 63/107/71 24/24/70 66/57/78 90/103/80
f 66/57/78 19/19/77 47/99/79 90/103/80
f 49/112/66 8/8/53 46/42/52 91/111/81
f 46/42/52 18/18/48 68/110/82 91/111/81
f 68/77/82 25/25/83 67/75/84 91/76/81
f 67/120/84 20/20/68 49/117/66 91/119/81
f 45/41/46 6/6/33 42/116/32 92/115/85
f 42/81/32 16/16/28 69/58/86 92/79/85
f 69/58/86 25/25/83 68/77/82 92/79/85
f 68/110/82 18/18/48 45/41/46 92/115/85
f 41/38/26 4/4/11 38/36/10 93/72/87
f 38/36/10 14/14/5 70/59/88 93/72/87
f 70/59/88 25/25/83 69/58/86 93/72/87
f 69/58/86 16/16/28 41/38/26 93/72/87
f 37/123/3 2/2/2 50/44/72 94/122/89
f 50/44/72 20/20/68 67/120/84 94/122/89
f 67/75/84 25/25/83 70/59/88 94/74/89
f 70/59/88 14/14/5 37/78/3 94/74/89
f 48/43/75 1/1/23 35/108/22 95/104/90
f 35/86/22 13/13/20 72/60/91 95/88/90
f 72/60/91 26/26/92 71/90/93 95/88/90
f 71/100/93 19/19/77 48/43/75 95/104/90
f 36/35/18 3/3/17 39/37/44 96/73/94
f 39/37/44 15/15/42 73/61/95 96/73/94
f 73/61/95 26/26/92 72/60/91 96/73/94
f 72/60/91 13/13/20 36/35/18 96/73/94
f 40/97/40 5/5/39 43/39/64 97/96/96
f 43/39/64 17/17/62 74/95/97 97/96/96
f 74/92/97 26/26/92 73/61/95 97/91/96
f 73/61/95 15/15/42 40/89/40 97/91/96
f 44/40/60 7/7/59 47/99/79 98/94/98
f 47/99/79 19/19/77 71/100/93 98/94/98
f 71/90/93 26/26/92 74/92/97 98/93/98
f 74/95/97 17/17/62 44/40/60 98/94/98
