# This file uses centimeters as units for non-parametric coordinates.
# UVs by headus UVLayout v2.08.00 2012/05/02 06:40:44

g default
v 0.115575 1.040041 4.939957
v 5.858610 0.787781 4.638122
v -6.020537 7.522484 3.366807
v 4.615757 7.639962 3.673024
v -6.193154 7.639962 -1.214664
v 4.875361 9.577539 -1.838777
v -0.052788 1.083512 -2.240382
v 6.500923 0.435765 -2.467505
v 2.826683 0.936960 4.724381
v -0.781939 6.667722 3.786473
v -0.786846 7.437433 -1.866692
v 3.047108 0.110453 -3.315053
v -3.017139 4.114095 5.435058
v 9.358349 4.271347 5.704397
v -8.084712 7.728002 1.229180
v 6.664107 9.275901 1.215004
v -3.179842 3.779316 -3.123426
v 9.363635 4.315853 -3.169447
v -0.952016 -0.066496 1.451397
v 7.065287 0.001538 1.317719
v 2.942967 4.372591 7.572146
v 0.538357 8.874819 1.344587
v 2.982881 4.428813 -3.169739
v 2.880704 -1.468569 1.500959
v 10.397284 4.428813 1.229180
v -5.518070 3.190652 1.274450
v 1.886224 6.533744 6.554306
v -4.255447 5.946882 3.847337
v -6.582533 5.869420 1.229180
v -4.878777 5.788656 -2.452627
v 1.940706 6.455373 -4.098823
v 8.883142 6.593597 -2.755245
v 10.431435 5.869420 1.229180
v 9.094485 7.270660 5.155942
# 50 texture coords
vt 0.770691 0.287209
vt 0.533032 0.244871
vt 0.833437 0.140738
vt 0.523078 0.090602
vt 0.655356 0.289756
vt 0.697251 0.072747
vt 0.753611 0.709058
vt 0.833535 0.225127
vt 0.481492 0.164137
vt 0.744069 0.476169
vt 0.212869 0.169516
vt 0.851176 0.830845
vt 0.623362 0.165841
vt 0.848234 0.357456
vt 0.111221 0.198716
vt 0.335373 0.152714
vt 0.718280 0.595360
vt 0.364231 0.153682
vt 0.193809 0.071417
vt 0.324633 0.032568
vt 0.088617 0.072575
vt 0.411499 0.024636
vt 0.346118 0.287340
vt 0.213239 0.263632
vt 0.136708 0.295277
vt 0.014474 0.227064
vt 0.005168 0.118635
vt 0.421200 0.279806
vt 0.066001 0.317141
vt 0.647895 0.005168
vt 0.865699 0.089791
vt 0.597230 0.336765
vt 0.885417 0.209723
vt 0.770263 0.343664
vt 0.925491 0.745203
vt 0.986013 0.799485
vt 0.986398 0.931753
vt 0.931893 0.992130
vt 0.790347 0.852407
vt 0.867563 0.698891
vt 0.685299 0.695942
vt 0.862841 0.592387
vt 0.645995 0.599146
vt 0.852400 0.481995
vt 0.676129 0.484842
vt 0.927205 0.436765
vt 0.789470 0.336458
vt 0.968935 0.243535
vt 0.988035 0.367954
vt 0.920872 0.209302
vn 0.000760 -0.703078 0.711112
vn 0.375118 -0.713633 0.591620
vn 0.615728 -0.280579 0.736312
vn 0.024129 -0.104553 0.994227
vn 0.433938 0.664971 0.607874
vn -0.116011 0.669357 0.733828
vn -0.592423 0.206676 0.778665
vn -0.534263 -0.303306 0.789030
vn -0.331130 -0.690373 0.643224
vn -0.083199 0.864172 0.496272
vn -0.001416 0.920202 0.391442
vn 0.304248 0.949421 0.077667
vn -0.123270 0.973918 0.190496
vn 0.060183 0.889527 -0.452901
vn -0.124310 0.864282 -0.487406
vn -0.323707 0.803114 -0.500222
vn -0.467248 0.881439 0.068885
vn -0.246937 0.706499 0.663236
vn -0.040457 0.311443 -0.949403
vn 0.510541 0.515153 -0.688452
vn 0.618732 -0.332430 -0.711801
vn 0.006438 -0.116043 -0.993223
vn 0.444423 -0.631381 -0.635489
vn -0.021111 -0.611464 -0.790991
vn -0.376037 -0.654173 -0.656243
vn -0.429353 -0.479180 -0.765534
vn -0.553754 0.049524 -0.831206
vn 0.590293 -0.805802 0.047313
vn -0.033395 -0.998369 0.046307
vn -0.494636 -0.868268 0.038023
vn 0.903771 -0.426797 0.032287
vn 0.814884 0.579419 0.015403
vn -0.752124 -0.658090 0.035014
vn -0.886837 -0.459923 0.044619
s 1
g pCube12
f 9/35/1 2/36/2 14/37/3 21/12/4
f 14/37/3 34/38/5 27/39/6 21/12/4
f 27/39/6 28/41/7 13/7/8 21/12/4
f 13/7/8 1/40/9 9/35/1 21/12/4
f 10/5/10 4/2/11 16/9/12 22/13/13
f 16/9/12 6/4/14 11/6/15 22/13/13
f 11/6/15 5/3/16 15/8/17 22/13/13
f 15/8/17 3/1/18 10/5/10 22/13/13
f 31/47/19 32/50/20 18/48/21 23/14/22
f 18/48/21 8/49/23 12/46/24 23/14/22
f 12/46/24 7/44/25 17/10/26 23/14/22
f 17/10/26 30/45/27 31/47/19 23/14/22
f 12/21/24 8/19/23 20/11/28 24/15/29
f 20/11/28 2/24/2 9/25/1 24/15/29
f 9/25/1 1/29/9 19/26/30 24/15/29
f 19/26/30 7/27/25 12/21/24 24/15/29
f 20/11/28 8/19/23 18/20/21 25/16/31
f 18/20/21 32/22/20 33/18/32 25/16/31
f 33/18/32 34/28/5 14/23/3 25/16/31
f 14/23/3 2/24/2 20/11/28 25/16/31
f 19/42/30 1/40/9 13/7/8 26/17/33
f 13/7/8 28/41/7 29/43/34 26/17/33
f 29/43/34 30/45/27 17/10/26 26/17/33
f 17/10/26 7/44/25 19/42/30 26/17/33
f 10/5/10 3/1/18 28/34/7 27/32/6
f 29/33/34 28/34/7 3/1/18 15/8/17
f 15/8/17 5/3/16 30/31/27 29/33/34
f 31/30/19 30/31/27 5/3/16 11/6/15
f 11/6/15 6/4/14 32/22/20 31/30/19
f 33/18/32 32/22/20 6/4/14 16/9/12
f 16/9/12 4/2/11 34/28/5 33/18/32
f 27/32/6 34/28/5 4/2/11 10/5/10
