# This file uses centimeters as units for non-parametric coordinates.
# UVs by headus UVLayout v2.08.00 2012/05/02 06:40:44

g default
v -1.981198 -1.015193 5.937852
v 9.165169 -0.159151 5.141557
v -1.822349 10.885956 6.276855
v 7.282100 8.250911 3.468556
v -1.821704 10.185537 -6.104377
v 8.916839 9.474050 -4.342726
v -0.965843 -0.659385 -4.722924
v 9.487078 -0.372025 -4.680604
v 4.174924 -1.736510 6.936165
v 4.105310 11.595487 7.070331
v 4.192667 11.296842 -6.310941
v 4.149675 -0.855191 -5.315903
v -1.150336 5.055138 5.815876
v 11.562883 5.427667 7.652445
v -3.509783 12.470083 1.741219
v 9.591929 10.603778 0.458514
v -3.079827 4.363536 -7.494700
v 10.702562 5.328339 -5.906690
v -1.465347 -0.795512 0.579093
v 10.037931 -1.104638 0.468451
v 4.158724 5.435349 9.492529
v 4.343389 13.722941 0.578888
v 4.224271 4.999349 -7.350184
v 4.097689 -1.627567 0.380570
v 11.192002 4.785294 0.351554
v -4.030996 4.747743 0.959273
v 0.819251 -1.590199 6.722109
v 7.301086 -1.140067 6.207693
v 0.696386 11.548780 6.971930
v 5.806786 9.245650 4.526846
v 0.523294 11.276098 -7.104191
v 7.572707 10.372685 -5.650432
v 1.141229 -0.871495 -5.070131
v 7.075445 -0.910690 -5.427636
v -2.768156 1.501170 6.921332
v -2.143893 8.120398 6.608259
v 10.808732 1.726640 6.637850
v 8.428305 6.464198 4.708272
v -1.804329 10.875892 4.150169
v -3.366307 11.988134 -3.236240
v 8.444241 9.547178 2.392914
v 7.985309 9.028435 -1.635057
v -2.281327 7.526178 -6.817008
v -1.783065 1.627957 -5.567417
v 9.237045 7.616374 -4.637083
v 10.622929 1.848067 -5.760581
v -1.592214 -2.077310 -2.232839
v -2.045488 -1.265303 3.405640
v 9.451080 -0.423312 -2.346791
v 9.054766 -0.236930 2.747730
v 4.247281 1.257476 10.135122
v 6.954571 5.093664 7.163435
v 4.151815 8.455380 8.990101
v 1.062836 5.279847 7.745770
v 4.257172 13.434479 4.119727
v 7.467816 12.208789 0.406443
v 5.378791 15.670683 -3.679974
v 0.548317 14.055442 1.046566
v 4.097689 7.611099 -5.903362
v 7.283971 4.846460 -6.789575
v 4.116651 1.646886 -7.783353
v 0.805008 5.046846 -8.582694
v 4.097689 -2.162503 -2.606359
v 6.821195 -1.466164 0.380570
v 4.144604 -2.970814 3.414223
v 1.479814 -1.186934 0.380570
v 12.377902 1.552548 0.347240
v 11.244552 5.132543 -2.594389
v 10.987040 7.903362 0.380570
v 12.073958 5.146653 3.650866
v -5.259190 0.805766 1.386530
v -3.050203 4.913625 3.638967
v -5.112661 8.105769 1.283583
v -5.544678 4.131165 -3.231307
v 7.520412 1.865468 8.275947
v 7.025615 7.666626 7.703327
v 0.217239 8.722196 9.436418
v 0.075628 1.614479 9.423394
v 8.050674 13.526401 3.873607
v 7.704220 11.976466 -2.705197
v 0.039175 15.163089 -3.527788
v 0.989343 12.641253 4.126924
v 6.249426 6.987602 -4.478944
v 8.045257 1.259240 -8.600540
v 0.930936 1.759614 -7.206596
v 1.201392 7.697820 -7.808744
v 6.988362 -1.886242 -2.510103
v 6.847698 -1.563123 2.860227
v 1.211899 -1.874265 3.266359
v 1.661251 -0.772222 -2.055868
v 12.138483 1.757188 -2.878604
v 10.876477 7.852128 -2.639785
v 12.079324 8.396725 3.616032
v 11.547506 1.940498 3.506529
v -3.793352 1.581866 3.797484
v -3.367958 7.957504 4.093564
v -5.909151 8.196424 -3.656646
v -6.246253 -0.708856 -3.115461
# 123 texture coords
vt 0.573657 0.364337
vt 0.741572 0.222768
vt 0.054519 0.237274
vt 0.386204 0.725595
vt 0.247484 0.059020
vt 0.389081 0.519915
vt 0.449584 0.183673
vt 0.622641 0.062223
vt 0.676503 0.307407
vt 0.500185 0.779990
vt 0.484148 0.458136
vt 0.527342 0.114326
vt 0.123917 0.333487
vt 0.255895 0.782232
vt 0.113693 0.157329
vt 0.396848 0.626537
vt 0.347393 0.126022
vt 0.291491 0.495103
vt 0.508327 0.282283
vt 0.690500 0.138196
vt 0.417396 0.897153
vt 0.550190 0.629812
vt 0.363992 0.383018
vt 0.595389 0.206448
vt 0.249828 0.619672
vt 0.222154 0.264806
vt 0.623814 0.342619
vt 0.717674 0.260993
vt 0.428504 0.749905
vt 0.425129 0.499398
vt 0.481737 0.154806
vt 0.575491 0.079764
vt 0.083176 0.281102
vt 0.333958 0.761414
vt 0.076702 0.205948
vt 0.183768 0.095142
vt 0.391055 0.675567
vt 0.394187 0.570886
vt 0.298035 0.084620
vt 0.349942 0.510537
vt 0.471123 0.234729
vt 0.539690 0.329259
vt 0.652670 0.096047
vt 0.713370 0.182936
vt 0.342559 0.841138
vt 0.461446 0.855014
vt 0.537773 0.706909
vt 0.465018 0.615764
vt 0.539327 0.537193
vt 0.413221 0.420458
vt 0.319402 0.430948
vt 0.562095 0.159732
vt 0.641054 0.174611
vt 0.633393 0.253798
vt 0.551071 0.238469
vt 0.273514 0.558824
vt 0.319361 0.621057
vt 0.240674 0.700047
vt 0.172999 0.299455
vt 0.177593 0.215446
vt 0.298012 0.208195
vt 0.393228 0.819524
vt 0.483653 0.676147
vt 0.456112 0.554512
vt 0.376161 0.454279
vt 0.607948 0.128952
vt 0.671988 0.211964
vt 0.585990 0.285805
vt 0.524663 0.197704
vt 0.328232 0.561844
vt 0.292705 0.685390
vt 0.128865 0.253323
vt 0.244372 0.154835
vt 0.177374 0.394115
vt 0.115520 0.436009
vt 0.073712 0.365914
vt 0.016681 0.311186
vt 0.221591 0.347326
vt 0.004728 0.233219
vt 0.278124 0.322825
vt 0.020201 0.167764
vt 0.366308 0.273618
vt 0.057123 0.098909
vt 0.401587 0.163837
vt 0.130672 0.022323
vt 0.379738 0.054700
vt 0.435290 0.105389
vt 0.325842 0.019365
vt 0.244729 0.004728
vt 0.386215 0.276823
vt 0.486347 0.058363
vt 0.456014 0.348018
vt 0.553236 0.005814
vt 0.503285 0.381488
vt 0.635170 0.011803
vt 0.567125 0.417227
vt 0.697515 0.043028
vt 0.651679 0.420862
vt 0.743751 0.096322
vt 0.731769 0.372149
vt 0.776942 0.159424
vt 0.776440 0.300667
vt 0.798872 0.224922
vt 0.465116 0.944219
vt 0.397779 0.990935
vt 0.334330 0.932365
vt 0.275539 0.872795
vt 0.520368 0.888297
vt 0.208052 0.803794
vt 0.555626 0.802009
vt 0.186761 0.704525
vt 0.592777 0.729314
vt 0.187985 0.621739
vt 0.616303 0.644572
vt 0.207535 0.546855
vt 0.618083 0.517025
vt 0.230183 0.474889
vt 0.533993 0.412290
vt 0.249662 0.393785
vt 0.452247 0.370151
vt 0.313320 0.340058
vt 0.410860 0.327413
vt 0.351906 0.290780
vn 0.426577 -0.777006 0.462920
vn 0.571359 -0.770126 0.283647
vn 0.683679 -0.364410 0.632288
vn 0.418336 -0.217794 0.881794
vn 0.625042 0.199441 0.754683
vn 0.413865 0.213902 0.884851
vn 0.124075 0.127710 0.984020
vn 0.111594 -0.246613 0.962668
vn 0.098407 -0.838398 0.536102
vn 0.380547 0.724294 0.574963
vn 0.514720 0.466584 0.719279
vn 0.712194 0.384946 0.587023
vn 0.664253 0.469793 0.581432
vn 0.300885 0.660568 0.687836
vn 0.304576 0.328163 0.894171
vn -0.233484 0.743671 0.626449
vn -0.688164 0.584511 0.429857
vn -0.785651 -0.052578 0.616432
vn -0.347228 0.145354 0.926448
vn -0.758834 0.079947 0.646359
vn -0.472306 0.070696 0.878595
vn -0.779176 -0.016667 0.626584
vn -0.560023 -0.732485 0.387093
vn -0.243799 -0.826923 0.506716
vn -0.425015 -0.111906 0.898242
vn 0.627441 0.474370 0.617488
vn 0.620023 0.681861 0.388121
vn 0.779274 0.608507 -0.149840
vn 0.672446 0.739964 0.016414
vn 0.184197 0.958684 0.216785
vn 0.182803 0.896892 0.402702
vn 0.769110 0.584840 -0.257745
vn 0.816041 0.369484 -0.444476
vn 0.577719 0.194321 -0.792767
vn 0.767228 0.602059 -0.221101
vn 0.277049 0.375443 -0.884470
vn 0.299710 0.905383 -0.300757
vn -0.126343 0.455662 -0.881141
vn -0.533379 0.412894 -0.738259
vn -0.735533 0.633724 -0.239551
vn -0.266475 0.918959 -0.290699
vn -0.707611 0.654423 0.266490
vn -0.252393 0.927041 0.277296
vn -0.634939 0.603942 0.481774
vn -0.208118 0.895987 0.392293
vn 0.453301 0.518815 -0.724810
vn 0.242188 0.263350 -0.933805
vn 0.643188 0.364148 -0.673576
vn 0.202661 0.434742 -0.877456
vn 0.210938 0.284189 -0.935276
vn 0.375242 0.144402 -0.915610
vn 0.773942 -0.192881 -0.603167
vn 0.553499 -0.769074 -0.319631
vn 0.152426 -0.853555 -0.498206
vn 0.248320 -0.251895 -0.935354
vn -0.119405 -0.834068 -0.538585
vn -0.047631 -0.334728 -0.941110
vn -0.135515 -0.831284 -0.539076
vn -0.153281 -0.743289 -0.651174
vn -0.424513 -0.454396 -0.783143
vn -0.148009 -0.476063 -0.866866
vn -0.575747 -0.121436 -0.808560
vn -0.058171 -0.007431 -0.998279
vn -0.563528 0.234185 -0.792208
vn 0.091080 0.231372 -0.968593
vn 0.538499 -0.826420 -0.164465
vn 0.195199 -0.973648 -0.117932
vn 0.542289 -0.836693 0.076601
vn 0.230155 -0.973116 0.008595
vn -0.070135 -0.991029 -0.113763
vn -0.110977 -0.987474 -0.112161
vn 0.547891 -0.812946 0.197317
vn 0.348688 -0.936065 0.046896
vn 0.041498 -0.999103 0.008426
vn -0.487982 -0.871002 0.056817
vn -0.207548 -0.976748 -0.053734
vn -0.263176 -0.947414 0.182057
vn -0.147191 -0.983808 -0.102258
vn -0.167583 -0.983890 -0.062266
vn -0.084165 -0.995039 -0.053052
vn 0.953521 -0.222352 -0.203368
vn 0.961822 0.220296 -0.162382
vn 0.986605 0.141039 -0.081973
vn 0.951498 -0.305946 0.032397
vn 0.853087 0.469043 -0.228562
vn 0.889031 0.417302 -0.188370
vn 0.732411 0.614252 0.293714
vn 0.983671 0.139973 0.113131
vn 0.918478 -0.363857 0.154939
vn -0.929828 -0.097270 0.354907
vn -0.882649 0.052460 0.467096
vn -0.952542 0.021997 0.303612
vn -0.889014 -0.294438 0.350658
vn -0.857623 0.024369 0.513701
vn -0.949217 0.150576 0.276252
vn -0.945099 0.217053 -0.244288
vn -0.969952 -0.031301 -0.241272
vn -0.843516 -0.511617 -0.163488
s 1
g pCube10
f 28/28/1 2/2/2 37/103/3 75/102/4
f 37/109/3 14/14/5 52/45/6 75/107/4
f 52/45/6 21/21/7 51/106/8 75/107/4
f 51/100/8 9/9/9 28/28/1 75/102/4
f 38/34/10 4/4/11 30/29/12 76/62/13
f 30/29/12 10/10/14 53/46/15 76/62/13
f 53/46/15 21/21/7 52/45/6 76/62/13
f 52/45/6 14/14/5 38/34/10 76/62/13
f 29/79/16 3/3/17 36/33/18 77/77/19
f 36/33/18 13/13/20 54/76/21 77/77/19
f 54/104/21 21/21/7 53/46/15 77/108/19
f 53/46/15 10/10/14 29/110/16 77/108/19
f 35/96/22 1/1/23 27/27/24 78/98/25
f 27/27/24 9/9/9 51/100/8 78/98/25
f 51/106/8 21/21/7 54/104/21 78/105/25
f 54/76/21 13/13/20 35/74/22 78/75/25
f 30/29/12 4/4/11 41/37/26 79/63/27
f 41/37/26 16/16/28 56/48/29 79/63/27
f 56/48/29 22/22/30 55/47/31 79/63/27
f 55/47/31 10/10/14 30/29/12 79/63/27
f 42/38/32 6/6/33 32/30/34 80/64/35
f 32/30/34 11/11/36 57/49/37 80/64/35
f 57/49/37 22/22/30 56/48/29 80/64/35
f 56/48/29 16/16/28 42/38/32 80/64/35
f 31/89/38 5/5/39 40/36/40 81/85/41
f 40/36/40 15/15/42 58/83/43 81/85/41
f 58/114/43 22/22/30 57/49/37 81/116/41
f 57/49/37 11/11/36 31/118/38 81/116/41
f 39/35/44 3/3/17 29/79/16 82/81/45
f 29/110/16 10/10/14 55/47/31 82/112/45
f 55/47/31 22/22/30 58/114/43 82/112/45
f 58/83/43 15/15/42 39/35/44 82/81/45
f 32/30/34 6/6/33 45/40/46 83/65/47
f 45/40/46 18/18/48 60/51/49 83/65/47
f 60/51/49 23/23/50 59/50/51 83/65/47
f 59/50/51 11/11/36 32/30/34 83/65/47
f 46/95/52 8/8/53 34/32/54 84/93/55
f 34/32/54 12/12/56 61/91/57 84/93/55
f 61/121/57 23/23/50 60/51/49 84/119/55
f 60/51/49 18/18/48 46/117/52 84/119/55
f 33/31/58 7/7/59 44/84/60 85/87/61
f 44/84/60 17/17/62 62/86/63 85/87/61
f 62/122/63 23/23/50 61/121/57 85/123/61
f 61/91/57 12/12/56 33/31/58 85/87/61
f 43/39/64 5/5/39 31/89/38 86/88/65
f 31/118/38 11/11/36 59/50/51 86/120/65
f 59/50/51 23/23/50 62/122/63 86/120/65
f 62/86/63 17/17/62 43/39/64 86/88/65
f 34/32/54 8/8/53 49/43/66 87/66/67
f 49/43/66 20/20/68 64/53/69 87/66/67
f 64/53/69 24/24/70 63/52/71 87/66/67
f 63/52/71 12/12/56 34/32/54 87/66/67
f 50/44/72 2/2/2 28/28/1 88/67/73
f 28/28/1 9/9/9 65/54/74 88/67/73
f 65/54/74 24/24/70 64/53/69 88/67/73
f 64/53/69 20/20/68 50/44/72 88/67/73
f 27/27/24 1/1/23 48/42/75 89/68/76
f 48/42/75 19/19/77 66/55/78 89/68/76
f 66/55/78 24/24/70 65/54/74 89/68/76
f 65/54/74 9/9/9 27/27/24 89/68/76
f 47/41/79 7/7/59 33/31/58 90/69/80
f 33/31/58 12/12/56 63/52/71 90/69/80
f 63/52/71 24/24/70 66/55/78 90/69/80
f 66/55/78 19/19/77 47/41/79 90/69/80
f 49/43/66 8/8/53 46/95/52 91/97/81
f 46/117/52 18/18/48 68/56/82 91/115/81
f 68/56/82 25/25/83 67/113/84 91/115/81
f 67/99/84 20/20/68 49/43/66 91/97/81
f 45/40/46 6/6/33 42/38/32 92/70/85
f 42/38/32 16/16/28 69/57/86 92/70/85
f 69/57/86 25/25/83 68/56/82 92/70/85
f 68/56/82 18/18/48 45/40/46 92/70/85
f 41/37/26 4/4/11 38/34/10 93/71/87
f 38/34/10 14/14/5 70/58/88 93/71/87
f 70/58/88 25/25/83 69/57/86 93/71/87
f 69/57/86 16/16/28 41/37/26 93/71/87
f 37/103/3 2/2/2 50/44/72 94/101/89
f 50/44/72 20/20/68 67/99/84 94/101/89
f 67/113/84 25/25/83 70/58/88 94/111/89
f 70/58/88 14/14/5 37/109/3 94/111/89
f 48/42/75 1/1/23 35/96/22 95/94/90
f 35/74/22 13/13/20 72/59/91 95/78/90
f 72/59/91 26/26/92 71/80/93 95/78/90
f 71/92/93 19/19/77 48/42/75 95/94/90
f 36/33/18 3/3/17 39/35/44 96/72/94
f 39/35/44 15/15/42 73/60/95 96/72/94
f 73/60/95 26/26/92 72/59/91 96/72/94
f 72/59/91 13/13/20 36/33/18 96/72/94
f 40/36/40 5/5/39 43/39/64 97/73/96
f 43/39/64 17/17/62 74/61/97 97/73/96
f 74/61/97 26/26/92 73/60/95 97/73/96
f 73/60/95 15/15/42 40/36/40 97/73/96
f 44/84/60 7/7/59 47/41/79 98/90/98
f 47/41/79 19/19/77 71/92/93 98/90/98
f 71/80/93 26/26/92 74/61/97 98/82/98
f 74/61/97 17/17/62 44/84/60 98/82/98
