# This file uses centimeters as units for non-parametric coordinates.
# UVs by headus UVLayout v2.08.00 2012/05/02 06:40:44

g default
v 0.961635 -0.002441 -1.490633
v 0.961635 0.832728 -1.436530
v 0.961635 -0.002441 -2.490633
v 0.961635 0.832728 -2.436530
v 0.961635 2.909526 -0.923041
v 0.961635 2.694159 -1.694813
v 0.961635 4.415602 -1.739909
v 0.961635 4.415602 -2.316256
v 0.961635 7.123474 -1.057580
v 0.961635 6.998775 -1.563495
v 0.961635 9.351563 -1.624514
v 0.961635 9.484803 -2.034583
v 0.961635 10.703076 -0.925018
v 0.961635 10.703076 -1.255463
v 0.961635 11.660992 -1.315005
v 0.961635 11.660992 -1.645451
v 0.961635 12.351702 -1.396610
v 0.961635 12.351702 -1.563846
v 0.961635 8.650537 -2.187296
v 0.961635 8.650537 -1.733465
v 0.961635 10.361706 -1.470561
v 0.961635 10.149674 -1.160391
v 0.961635 11.165710 -1.399655
v 0.961635 11.293020 -1.094719
v 0.961635 3.416513 -2.011909
v 0.961635 3.743874 -1.381059
v 0.961635 1.893294 -1.726601
v 0.961635 1.893294 -0.823500
v 0.961635 5.279715 -1.664433
v 0.961635 5.438714 -2.199004
v 0.961635 7.883131 -1.362357
v 0.961635 7.667673 -1.811578
v 0.961635 6.251286 -1.091197
v 0.961635 6.435271 -1.593547
# 102 texture coords
vt 0.810469 0.144825
vt 0.777880 0.172585
vt 0.771342 0.148798
vt 0.804623 0.119528
vt 0.839752 0.140631
vt 0.839140 0.113255
vt 0.748248 0.174470
vt 0.752317 0.150406
vt 0.862983 0.157124
vt 0.873320 0.126879
vt 0.722364 0.160064
vt 0.729659 0.138718
vt 0.891875 0.178130
vt 0.898178 0.141277
vt 0.696317 0.142349
vt 0.696443 0.120787
vt 0.926477 0.181894
vt 0.925264 0.139004
vt 0.672433 0.147310
vt 0.668148 0.127774
vt 0.961604 0.151746
vt 0.960237 0.104254
vt 0.644995 0.168964
vt 0.638059 0.154106
vt 0.989843 0.148356
vt 0.988470 0.100865
vt 0.625980 0.179780
vt 0.626315 0.164084
vt 0.606144 0.171248
vt 0.610811 0.156869
vt 0.593922 0.160464
vt 0.594328 0.144769
vt 0.570605 0.155969
vt 0.570815 0.148026
vt 0.840242 0.098573
vt 0.759138 0.096228
vt 0.774890 0.055252
vt 0.838539 0.051319
vt 0.923499 0.063399
vt 0.921564 0.011076
vt 0.691881 0.074455
vt 0.716881 0.040606
vt 0.989872 0.058086
vt 0.987919 0.005764
vt 0.637770 0.057307
vt 0.636920 0.027142
vt 0.568989 0.063040
vt 0.555704 0.035340
vt 0.492108 0.094574
vt 0.477046 0.068503
vt 0.422584 0.097182
vt 0.432280 0.070607
vt 0.361920 0.081524
vt 0.379010 0.057953
vt 0.300730 0.062085
vt 0.300794 0.038323
vt 0.244808 0.067480
vt 0.234368 0.045925
vt 0.180963 0.091138
vt 0.164262 0.074707
vt 0.136725 0.102917
vt 0.136951 0.085616
vt 0.089867 0.093391
vt 0.100212 0.077557
vt 0.060720 0.081502
vt 0.060910 0.064202
vt 0.005764 0.076692
vt 0.005850 0.067936
vt 0.501518 0.986438
vt 0.457050 0.963845
vt 0.473179 0.930309
vt 0.511466 0.945682
vt 0.554904 0.989855
vt 0.553285 0.942597
vt 0.421288 0.946076
vt 0.420491 0.915909
vt 0.609301 0.955839
vt 0.607465 0.903512
vt 0.376070 0.951123
vt 0.367166 0.923313
vt 0.652907 0.951461
vt 0.651059 0.899136
vt 0.325652 0.982064
vt 0.315645 0.955902
vt 0.279917 0.984324
vt 0.286250 0.957788
vt 0.239995 0.968490
vt 0.251262 0.944963
vt 0.199787 0.948925
vt 0.199935 0.925163
vt 0.162958 0.954279
vt 0.156249 0.932724
vt 0.120762 0.977956
vt 0.109937 0.961531
vt 0.091535 0.989741
vt 0.091882 0.972443
vt 0.060829 0.980188
vt 0.067843 0.964372
vt 0.041825 0.968224
vt 0.042203 0.950926
vt 0.005764 0.963178
vt 0.005951 0.954423
vn -1.000000 0.000000 0.000000
vn -1.000000 0.000000 0.000000
vn -1.000000 0.000000 0.000000
vn -1.000000 0.000000 0.000000
vn -1.000000 0.000000 0.000000
vn -1.000000 0.000000 0.000000
vn -1.000000 0.000000 0.000000
vn -1.000000 0.000000 0.000000
vn -1.000000 0.000000 0.000000
vn -1.000000 0.000000 0.000000
vn -1.000000 -0.000000 0.000000
vn -1.000000 -0.000000 0.000000
vn -1.000000 -0.000000 0.000000
vn -1.000000 -0.000000 0.000000
vn -1.000000 -0.000000 0.000000
vn -1.000000 -0.000000 0.000000
vn -1.000000 -0.000000 0.000000
vn -1.000000 -0.000000 0.000000
vn -1.000000 0.000000 0.000000
vn -1.000000 0.000000 0.000000
vn -1.000000 -0.000000 0.000000
vn -1.000000 -0.000000 0.000000
vn -1.000000 -0.000000 0.000000
vn -1.000000 -0.000000 0.000000
vn -1.000000 -0.000000 0.000000
vn -1.000000 -0.000000 0.000000
vn -1.000000 -0.000000 0.000000
vn -1.000000 -0.000000 0.000000
vn -1.000000 0.000000 0.000000
vn -1.000000 0.000000 0.000000
vn -1.000000 0.000000 0.000000
vn -1.000000 0.000000 0.000000
vn -1.000000 -0.000000 0.000000
vn -1.000000 -0.000000 0.000000
s 1
g pPlane1 group2
f 1/81/1 2/77/2 4/78/3 3/82/4
f 27/74/5 28/73/6 5/69/7 6/72/8
f 25/71/9 26/70/10 7/75/11 8/76/12
f 8/76/12 7/75/11 29/79/13 30/80/14
f 19/90/15 20/89/16 11/91/17 12/92/18
f 21/94/19 22/93/20 13/95/21 14/96/22
f 23/98/23 24/97/24 15/99/25 16/100/26
f 16/100/26 15/99/25 17/101/27 18/102/28
f 10/86/29 9/85/30 31/87/31 32/88/32
f 12/92/18 11/91/17 22/93/20 21/94/19
f 14/96/22 13/95/21 24/97/24 23/98/23
f 6/72/8 5/69/7 26/70/10 25/71/9
f 4/78/3 2/77/2 28/73/6 27/74/5
f 30/80/14 29/79/13 33/83/33 34/84/34
f 32/88/32 31/87/31 20/89/16 19/90/15
f 34/84/34 33/83/33 9/85/30 10/86/29
g default
v 0.961635 -0.263003 0.159039
v 0.961635 1.007392 0.213142
v 0.961635 -0.263003 -0.840961
v 0.961635 1.007392 -0.786858
v 0.961635 4.166460 0.726631
v 0.961635 3.838859 -0.045141
v 0.961635 6.457387 -0.090236
v 0.961635 6.457387 -0.666583
v 0.961635 10.576395 0.592092
v 0.961635 10.386713 0.086178
v 0.961635 13.965594 0.025159
v 0.961635 14.168269 -0.384911
v 0.961635 16.021413 0.724655
v 0.961635 16.021413 0.394209
v 0.961635 17.478522 0.334667
v 0.961635 17.478522 0.004222
v 0.961635 18.529177 0.253063
v 0.961635 18.529177 0.085826
v 0.961635 12.899247 -0.537624
v 0.961635 12.899247 -0.083793
v 0.961635 15.502147 0.179111
v 0.961635 15.179620 0.489281
v 0.961635 16.725136 0.250017
v 0.961635 16.918790 0.554954
v 0.961635 4.937649 -0.362236
v 0.961635 5.435605 0.268614
v 0.961635 2.620644 -0.076929
v 0.961635 2.620644 0.826173
v 0.961635 7.771810 -0.014761
v 0.961635 8.013666 -0.549331
v 0.961635 11.731928 0.287315
v 0.961635 11.404190 -0.161905
v 0.961635 9.249689 0.558476
v 0.961635 9.529554 0.056126
vn -1.000000 0.000000 0.000000
vn -1.000000 0.000000 0.000000
vn -1.000000 0.000000 0.000000
vn -1.000000 0.000000 0.000000
vn -1.000000 0.000000 0.000000
vn -1.000000 0.000000 0.000000
vn -1.000000 0.000000 0.000000
vn -1.000000 0.000000 0.000000
vn -1.000000 0.000000 0.000000
vn -1.000000 0.000000 0.000000
vn -1.000000 -0.000000 0.000000
vn -1.000000 -0.000000 0.000000
vn -1.000000 -0.000000 0.000000
vn -1.000000 -0.000000 0.000000
vn -1.000000 -0.000000 0.000000
vn -1.000000 -0.000000 0.000000
vn -1.000000 -0.000000 0.000000
vn -1.000000 -0.000000 0.000000
vn -1.000000 0.000000 0.000000
vn -1.000000 0.000000 0.000000
vn -1.000000 -0.000000 0.000000
vn -1.000000 -0.000000 0.000000
vn -1.000000 -0.000000 0.000000
vn -1.000000 -0.000000 0.000000
vn -1.000000 -0.000000 0.000000
vn -1.000000 -0.000000 0.000000
vn -1.000000 -0.000000 0.000000
vn -1.000000 -0.000000 0.000000
vn -1.000000 0.000000 0.000000
vn -1.000000 0.000000 0.000000
vn -1.000000 0.000000 0.000000
vn -1.000000 0.000000 0.000000
vn -1.000000 0.000000 0.000000
vn -1.000000 0.000000 0.000000
s 1
g group2 pPlane2
f 35/43/35 36/39/36 38/40/37 37/44/38
f 61/38/39 62/35/40 39/36/41 40/37/42
f 59/42/43 60/41/44 41/45/45 42/46/46
f 42/46/46 41/45/45 63/47/47 64/48/48
f 53/56/49 54/55/50 45/57/51 46/58/52
f 55/60/53 56/59/54 47/61/55 48/62/56
f 57/64/57 58/63/58 49/65/59 50/66/60
f 50/66/60 49/65/59 51/67/61 52/68/62
f 44/52/63 43/51/64 65/53/65 66/54/66
f 46/58/52 45/57/51 56/59/54 55/60/53
f 48/62/56 47/61/55 58/63/58 57/64/57
f 40/37/42 39/36/41 60/41/44 59/42/43
f 38/40/37 36/39/36 62/35/40 61/38/39
f 64/48/48 63/47/47 67/49/67 68/50/68
f 66/54/66 65/53/65 54/55/50 53/56/49
f 68/50/68 67/49/67 43/51/64 44/52/63
g default
v -1.565643 0.173711 1.444371
v -1.565643 0.714646 1.493465
v -1.565643 0.173711 0.536946
v -1.565643 0.714646 0.586040
v -1.565643 2.059781 1.959417
v -1.565643 1.920288 1.259092
v -1.565643 3.035261 1.218172
v -1.565643 3.035261 0.695180
v -1.565643 4.789139 1.837333
v -1.565643 4.708372 1.378254
v -1.565643 6.232264 1.322884
v -1.565643 6.318563 0.950777
v -1.565643 7.107633 1.957623
v -1.565643 7.107633 1.657769
v -1.565643 7.728072 1.603739
v -1.565643 7.728072 1.303885
v -1.565643 8.175442 1.529690
v -1.565643 8.175442 1.377935
v -1.565643 5.778212 0.812201
v -1.565643 5.778212 1.224019
v -1.565643 6.886530 1.462584
v -1.565643 6.749197 1.744040
v -1.565643 7.407280 1.526926
v -1.565643 7.489738 1.803633
v -1.565643 2.388155 0.971352
v -1.565643 2.600185 1.543801
v -1.565643 1.401571 1.230247
v -1.565643 1.401571 2.049743
v -1.565643 3.594943 1.286660
v -1.565643 3.697926 0.801578
v -1.565643 5.281166 1.560771
v -1.565643 5.141615 1.153138
v -1.565643 4.224226 1.806829
v -1.565643 4.343393 1.350984
vn -1.000000 0.000000 0.000000
vn -1.000000 -0.000000 0.000000
vn -1.000000 0.000000 0.000000
vn -1.000000 0.000000 0.000000
vn -1.000000 -0.000000 0.000000
vn -1.000000 0.000000 0.000000
vn -1.000000 0.000000 0.000000
vn -1.000000 0.000000 0.000000
vn -1.000000 0.000000 0.000000
vn -1.000000 0.000000 0.000000
vn -1.000000 -0.000000 0.000000
vn -1.000000 -0.000000 0.000000
vn -1.000000 -0.000000 0.000000
vn -1.000000 -0.000000 0.000000
vn -1.000000 -0.000000 0.000000
vn -1.000000 -0.000000 0.000000
vn -1.000000 -0.000000 0.000000
vn -1.000000 -0.000000 0.000000
vn -1.000000 0.000000 0.000000
vn -1.000000 0.000000 0.000000
vn -1.000000 -0.000000 0.000000
vn -1.000000 -0.000000 0.000000
vn -1.000000 -0.000000 0.000000
vn -1.000000 -0.000000 0.000000
vn -1.000000 -0.000000 0.000000
vn -1.000000 -0.000000 0.000000
vn -1.000000 -0.000000 0.000000
vn -1.000000 -0.000000 0.000000
vn -1.000000 -0.000000 0.000000
vn -1.000000 -0.000000 0.000000
vn -1.000000 0.000000 0.000000
vn -1.000000 0.000000 0.000000
vn -1.000000 -0.000000 0.000000
vn -1.000000 -0.000000 0.000000
s 1
g group2 pPlane3
f 69/25/69 70/21/70 72/22/71 71/26/72
f 95/18/73 96/17/74 73/13/75 74/14/76
f 93/10/77 94/9/78 75/5/79 76/6/80
f 76/6/80 75/5/79 97/1/81 98/4/82
f 87/16/83 88/15/84 79/19/85 80/20/86
f 89/24/87 90/23/88 81/27/89 82/28/90
f 91/30/91 92/29/92 83/31/93 84/32/94
f 84/32/94 83/31/93 85/33/95 86/34/96
f 78/8/97 77/7/98 99/11/99 100/12/100
f 80/20/86 79/19/85 90/23/88 89/24/87
f 82/28/90 81/27/89 92/29/92 91/30/91
f 74/14/76 73/13/75 94/9/78 93/10/77
f 72/22/71 70/21/70 96/17/74 95/18/73
f 98/4/82 97/1/81 101/2/101 102/3/102
f 100/12/100 99/11/99 88/15/84 87/16/83
f 102/3/102 101/2/101 77/7/98 78/8/97
